# xmcd
#
# Track frame offsets:
#  150
#  19595
#  34735
#  49420
#  63745
#  82970
#  98942
#  112490
#  128742
#  143495
#  158327
#  183907
#
# Disc length: 2665 seconds
#
# Revision: 0
# Processed by: cddbd v1.5.1PL2 Copyright (c) Steve Scherf et al.
# Submitted via: Collectorz.com_Music_Collector 6.9
#
DISCID=9c0a670c
DTITLE=Dei Nye Kapellanane - Living Next Door To Alice Cooper 
DYEAR=1998
DGENRE=Covers
TTITLE0=Living Next Door To Alice Cooper
TTITLE1=Ivar Aasen Og Katten Hans
TTITLE2=Anne Britt (Lady Rose)
TTITLE3=Mitt Piano
TTITLE4=Gä Heim Og Vogg
TTITLE5=Natta Var Stor
TTITLE6=Anni Anni (Funny Funny)
TTITLE7=Dar Kjem Dampen
TTITLE8=Ein Vidunderleg Dag
TTITLE9=Anarki I Noreg
TTITLE10=Heite Hyl
TTITLE11=Pjoltergeist
EXTD=
EXTT0=
EXTT1=
EXTT2=
EXTT3=
EXTT4=
EXTT5=
EXTT6=
EXTT7=
EXTT8=
EXTT9=
EXTT10=
EXTT11=
PLAYORDER=
